<?xml version="1.0" encoding="iso-8859-1"?>
<!-- Generator: Adobe Illustrator 19.0.0, SVG Export Plug-In . SVG Version: 6.00 Build 0)  -->
<svg version="1.1" id="Capa_1" xmlns="http://www.w3.org/2000/svg" xmlns:xlink="http://www.w3.org/1999/xlink" x="0px" y="0px"
	 viewBox="0 0 406.817 406.817" style="enable-background:new 0 0 406.817 406.817;" xml:space="preserve">
<g>
	<g>
		<path d="M196.893,66.177c-2.621-3.557-7.629-4.315-11.186-1.694c-0.646,0.476-1.217,1.047-1.694,1.694
			c-3.28,4.48-81.12,110-81.12,156.08c0.263,48.258,39.342,87.301,87.6,87.52c48.227-0.262,87.258-39.293,87.52-87.52
			C278.013,176.177,200.174,70.257,196.893,66.177z M190.453,293.737c-39.521,0-71.56-32.039-71.56-71.56
			c0-30.8,46.88-102.96,71.6-137.6v-0.08c24.72,34.64,71.52,106.8,71.52,137.68C262.013,261.699,229.975,293.737,190.453,293.737z"
			/>
	</g>
</g>
<g>
	<g>
		<path d="M119.054,340.897C33.739,301.594-3.561,200.571,35.743,115.257c5.729-12.435,12.938-24.133,21.471-34.839l17.36,19.6
			c2.929,3.308,7.985,3.616,11.293,0.688c1.314-1.163,2.209-2.726,2.547-4.448l11.04-54.4c0.471-2.429-0.208-4.94-1.84-6.8
			c-1.642-1.881-4.069-2.887-6.56-2.72l-55.6,3.92c-4.408,0.306-7.733,4.126-7.428,8.534c0.122,1.758,0.821,3.426,1.988,4.746
			l16.64,18.8c-65.224,79.476-53.67,196.778,25.806,262.002c3.434,2.818,6.968,5.512,10.594,8.078h-0.16
			c9.274,6.565,19.128,12.268,29.44,17.04c1.055,0.481,2.201,0.726,3.36,0.72c4.418,0.024,8.019-3.538,8.043-7.956
			C123.754,345.07,121.92,342.203,119.054,340.897z M81.373,49.057l-5.92,28.32l-22.88-25.92L81.373,49.057z"/>
	</g>
</g>
<g>
	<g>
		<path d="M368.494,199.377c-4.388-0.514-8.363,2.626-8.877,7.014c-0.001,0.009-0.002,0.017-0.003,0.026
			c-9.881,83.246-78.945,146.877-162.72,149.92l2.48-24c0.677-4.366-2.314-8.454-6.681-9.131c-1.903-0.295-3.849,0.107-5.479,1.131
			l-47.28,29.52c-3.777,2.292-4.982,7.212-2.69,10.989c0.368,0.607,0.815,1.162,1.33,1.651l40,38.16
			c1.496,1.4,3.471,2.173,5.52,2.16c0.954,0.008,1.903-0.154,2.8-0.48c2.854-1.046,4.869-3.619,5.2-6.64l3.36-27.28
			c92.459-2.382,169.135-72.31,180-164.16C375.971,203.887,372.861,199.919,368.494,199.377z M178.094,381.857l-20.96-19.84
			l24.56-15.04L178.094,381.857z"/>
	</g>
</g>
<g>
	<g>
		<path d="M398.243,122.209c-1.463-0.795-3.137-1.113-4.79-0.911l0.08,0.24l-27.04,4.08C332.94,28.34,226.881-23.319,129.603,10.234
			c-5.841,2.015-11.578,4.319-17.19,6.903c-4.021,1.856-5.776,6.619-3.92,10.64c1.856,4.021,6.619,5.776,10.64,3.92
			c85.347-39.444,186.51-2.232,225.954,83.115c1.951,4.221,3.727,8.519,5.326,12.885l-24,3.6c-4.367,0.673-7.361,4.758-6.689,9.125
			c0.268,1.737,1.1,3.338,2.369,4.555l40,38.48c1.483,1.429,3.46,2.232,5.52,2.24h1.2c2.478-0.37,4.64-1.88,5.84-4.08l26.8-48.56
			C403.563,129.175,402.125,124.318,398.243,122.209z M365.934,165.057l-20.8-20l34.72-5.6L365.934,165.057z"/>
	</g>
</g>
<g>
</g>
<g>
</g>
<g>
</g>
<g>
</g>
<g>
</g>
<g>
</g>
<g>
</g>
<g>
</g>
<g>
</g>
<g>
</g>
<g>
</g>
<g>
</g>
<g>
</g>
<g>
</g>
<g>
</g>
</svg>
