<svg height="480pt" viewBox="0 0 480 480" width="480pt" xmlns="http://www.w3.org/2000/svg"><path d="m472 112c4.417969 0 8-3.582031 8-8v-96c0-4.417969-3.582031-8-8-8h-304c-4.417969 0-8 3.582031-8 8v96c0 4.417969 3.582031 8 8 8h200v264h-16v-216c0-4.417969-3.582031-8-8-8h-256c-4.417969 0-8 3.582031-8 8v219.832031l-76.585938 53.601563c-.203124.175781-.402343.367187-.589843.566406-.28125.226562-.550781.472656-.800781.734375-.421876.488281-.78125 1.027344-1.070313 1.601563-.152344.257812-.292969.527343-.417969.800781-.347656.898437-.5273435 1.851562-.535156 2.816406v32.046875c0 4.417969 3.582031 8 8 8h464c4.417969 0 8-3.582031 8-8v-32.046875c-.019531-.964844-.210938-1.921875-.566406-2.816406-.125-.273438-.265625-.542969-.417969-.800781-.289063-.574219-.652344-1.113282-1.070313-1.601563-.238281-.257813-.492187-.503906-.761718-.734375-.1875-.199219-.382813-.390625-.589844-.566406l-60.59375-42.394532v-279.039062zm-296-96h288v80h-288zm56 152v80h-32v-80zm-136 0h88v88c0 4.417969 3.582031 8 8 8h48c4.417969 0 8-3.582031 8-8v-88h88v240h-240zm368 296h-448v-16h448zm-17.375-32h-413.25l46.625-32.632812v16.632812c0 4.417969 3.582031 8 8 8h256c4.417969 0 8-3.582031 8-8v-24h16v24c0 4.417969 3.582031 8 8 8h32c4.417969 0 8-3.582031 8-8v-5.433594zm-46.625-24h-16v-296h16zm0 0"/><path d="m352 24h-32c-4.417969 0-8 3.582031-8 8v48c0 4.417969 3.582031 8 8 8h32c4.417969 0 8-3.582031 8-8v-48c0-4.417969-3.582031-8-8-8zm-8 48h-16v-32h16zm0 0"/><path d="m296 24h-32c-4.417969 0-8 3.582031-8 8v48c0 4.417969 3.582031 8 8 8h32c4.417969 0 8-3.582031 8-8v-48c0-4.417969-3.582031-8-8-8zm-8 48h-16v-32h16zm0 0"/><path d="m408 88c4.417969 0 8-3.582031 8-8v-48c0-4.417969-3.582031-8-8-8h-32c-4.417969 0-8 3.582031-8 8v48c0 4.417969 3.582031 8 8 8zm-24-48h16v32h-16zm0 0"/><path d="m440 88h8c4.417969 0 8-3.582031 8-8s-3.582031-8-8-8h-8c-4.417969 0-8 3.582031-8 8s3.582031 8 8 8zm0 0"/></svg>