<?xml version="1.0" encoding="iso-8859-1"?>
<!-- Generator: Adobe Illustrator 19.0.0, SVG Export Plug-In . SVG Version: 6.00 Build 0)  -->
<svg fill="#fff" version="1.1" id="Capa_1" xmlns="http://www.w3.org/2000/svg" xmlns:xlink="http://www.w3.org/1999/xlink" x="0px" y="0px" viewBox="0 0 480 480" style="enable-background:new 0 0 480 480;" xml:space="preserve">
<g>
	<g>
		<path d="M211.111,228.376l2.624-1.752c8.911-5.926,14.261-15.922,14.248-26.624v-68.144
			c-0.016-20.101-10.778-38.659-28.216-48.656l-23.752-13.6c-2.483-1.433-4.008-4.085-4-6.952V56h8c4.418,0,8-3.582,8-8V16
			c0-8.837-7.163-16-16-16H99.983c-8.837,0-16,7.163-16,16v32c0,4.418,3.582,8,8,8h8v6.712c0.009,2.867-1.517,5.519-4,6.952
			l-23.752,13.6c-17.431,9.978-28.203,28.508-28.248,48.592V200c-0.013,10.702,5.337,20.698,14.248,26.624l2.624,1.752
			c4.452,2.967,7.127,7.962,7.128,13.312V264c-0.001,5.35-2.676,10.345-7.128,13.312l-2.624,1.752
			c-8.911,5.926-14.261,15.922-14.248,26.624V448c0,17.673,14.327,32,32,32h120c17.673,0,32-14.327,32-32V305.688
			c0.013-10.702-5.337-20.698-14.248-26.624l-2.624-1.752c-4.452-2.967-7.127-7.962-7.128-13.312v-22.312
			C203.984,236.338,206.659,231.343,211.111,228.376z M99.983,16h72v24h-72V16z M80.143,97.128l23.752-13.6
			c7.458-4.281,12.066-12.216,12.088-20.816V56h40v6.712c0.012,8.611,4.625,16.559,12.096,20.84l23.744,13.6
			c8.743,5.029,15.264,13.176,18.256,22.808c-7.281-0.183-14.341-2.54-20.272-6.768c-8.95-6.191-19.623-9.407-30.504-9.192
			c-10.884-0.23-21.564,2.978-30.52,9.168c-6.445,4.631-14.226,7.03-22.16,6.832c-7.935,0.206-15.719-2.193-22.16-6.832
			c-4.632-3.043-9.664-5.429-14.952-7.088C72.498,102.491,76.098,99.46,80.143,97.128z M202.231,290.624l2.624,1.752
			c4.452,2.967,7.127,7.962,7.128,13.312V448c0,8.837-7.163,16-16,16h-120c-8.837,0-16-7.163-16-16V305.688
			c0.001-5.35,2.676-10.345,7.128-13.312l2.624-1.752c8.911-5.926,14.261-15.922,14.248-26.624v-22.312
			c0.013-10.702-5.337-20.698-14.248-26.624l-2.624-1.752c-4.452-2.967-7.127-7.962-7.128-13.312v-68.144
			c0.016-3.794,0.576-7.565,1.664-11.2c5.204,1.065,10.138,3.174,14.504,6.2c8.944,6.174,19.606,9.373,30.472,9.144
			c10.878,0.222,21.551-2.985,30.504-9.168c6.447-4.639,14.236-7.038,22.176-6.832c7.942-0.206,15.734,2.194,22.184,6.832
			c8.951,6.182,19.62,9.389,30.496,9.168v64c-0.001,5.35-2.676,10.345-7.128,13.312l-2.624,1.752
			c-8.911,5.926-14.261,15.922-14.248,26.624V264C187.97,274.702,193.32,284.698,202.231,290.624z"/>
	</g>
</g>
<g>
	<g>
		<rect x="75.983" y="176" width="120" height="16"/>
	</g>
</g>
<g>
	<g>
		<rect x="75.983" y="304" width="120" height="16"/>
	</g>
</g>
<g>
	<g>
		<rect x="99.983" y="240" width="24" height="16"/>
	</g>
</g>
<g>
	<g>
		<rect x="147.983" y="240" width="24" height="16"/>
	</g>
</g>
<g>
	<g>
		<rect x="75.983" y="432" width="120" height="16"/>
	</g>
</g>
<g>
	<g>
		<rect x="75.983" y="368" width="120" height="16"/>
	</g>
</g>
</svg>
